M48
;DRILL file {KiCad 4.0.7} date 05/16/22 10:03:50
;FORMAT={-:-/ absolute / metric / decimal}
FMAT,2
METRIC,TZ
T1C0.800
T2C1.000
T3C1.200
T4C1.400
%
G90
G05
M71
T1
X181.61Y-71.374
X184.912Y-74.168
X184.912Y-84.328
X185.166Y-61.214
X185.166Y-66.214
X187.198Y-91.948
X188.722Y-74.168
X188.722Y-84.328
X192.786Y-75.438
X192.786Y-85.598
X196.342Y-75.438
X196.342Y-85.598
X196.85Y-71.374
X200.152Y-75.438
X200.152Y-77.978
X200.152Y-80.518
X200.152Y-83.058
X200.152Y-86.614
X202.438Y-91.948
X205.152Y-86.614
X207.772Y-66.294
X207.772Y-71.294
X207.772Y-75.438
X207.772Y-77.978
X207.772Y-80.518
X207.772Y-83.058
X211.328Y-83.9
X211.328Y-88.9
T2
X190.754Y-58.42
X191.008Y-66.294
X193.294Y-58.42
X193.548Y-66.294
X195.834Y-58.42
X196.088Y-66.294
X219.202Y-86.36
X219.202Y-88.9
T3
X219.202Y-68.834
X219.202Y-73.914
X219.202Y-78.994
T4
X202.946Y-58.166
X208.026Y-58.166
T0
M30
